<svg id="svg" version="1.1" xmlns="http://www.w3.org/2000/svg" xmlns:xlink="http://www.w3.org/1999/xlink" width="400" height="399.60039960039967" viewBox="0, 0, 400,399.60039960039967">
    <g id="svgg">
        <path id="path1" d="M114.985 159.337 C 116.359 159.415,118.606 159.415,119.980 159.337 C 121.354 159.259,120.230 159.195,117.483 159.195 C 114.735 159.195,113.611 159.259,114.985 159.337 M165.551 159.338 C 167.044 159.415,169.381 159.414,170.746 159.336 C 172.110 159.259,170.889 159.196,168.032 159.196 C 165.175 159.197,164.058 159.261,165.551 159.338 M189.128 159.338 C 190.620 159.415,192.958 159.414,194.322 159.336 C 195.687 159.259,194.466 159.196,191.608 159.196 C 188.751 159.197,187.635 159.261,189.128 159.338 M229.887 159.338 C 231.379 159.415,233.717 159.414,235.082 159.336 C 236.446 159.259,235.225 159.196,232.368 159.196 C 229.510 159.197,228.394 159.261,229.887 159.338 M260.639 159.340 C 265.859 159.403,274.401 159.403,279.620 159.340 C 284.840 159.277,280.569 159.226,270.130 159.226 C 259.690 159.226,255.420 159.277,260.639 159.340 M124.870 184.715 L 124.875 207.992 137.862 208.001 L 150.849 208.009 137.965 207.895 L 125.081 207.781 124.973 184.610 L 124.865 161.438 124.870 184.715 M184.406 191.009 C 184.406 207.383,184.455 214.081,184.515 205.894 C 184.576 197.707,184.576 184.311,184.515 176.124 C 184.455 167.937,184.406 174.635,184.406 191.009 M225.159 178.821 C 225.159 188.492,225.211 192.390,225.274 187.485 C 225.338 182.580,225.338 174.668,225.274 169.903 C 225.211 165.138,225.158 169.151,225.159 178.821 M291.464 166.434 C 291.465 169.291,291.528 170.407,291.605 168.914 C 291.682 167.422,291.682 165.084,291.604 163.720 C 291.526 162.355,291.463 163.576,291.464 166.434 M66.426 184.216 C 66.426 184.985,66.509 185.300,66.609 184.915 C 66.710 184.530,66.710 183.901,66.609 183.516 C 66.509 183.132,66.426 183.447,66.426 184.216 M270.055 183.716 C 273.640 183.782,279.395 183.782,282.842 183.715 C 286.290 183.649,283.357 183.595,276.324 183.595 C 269.291 183.595,266.470 183.649,270.055 183.716 M291.464 190.809 C 291.465 193.666,291.528 194.783,291.605 193.290 C 291.682 191.797,291.682 189.460,291.604 188.095 C 291.526 186.731,291.463 187.952,291.464 190.809 M66.426 192.208 C 66.426 192.977,66.509 193.292,66.609 192.907 C 66.710 192.522,66.710 191.893,66.609 191.508 C 66.509 191.124,66.426 191.439,66.426 192.208 M270.055 208.091 C 273.640 208.158,279.395 208.157,282.842 208.091 C 286.290 208.025,283.357 207.970,276.324 207.970 C 269.291 207.971,266.470 208.025,270.055 208.091 M152.804 215.385 C 152.804 218.352,152.867 219.565,152.944 218.082 C 153.021 216.598,153.021 214.171,152.944 212.687 C 152.867 211.204,152.804 212.418,152.804 215.385 M291.464 215.185 C 291.465 218.042,291.528 219.158,291.605 217.666 C 291.682 216.173,291.682 213.835,291.604 212.471 C 291.526 211.106,291.463 212.328,291.464 215.185 " stroke="none" fill="#FFFFFF" fill-rule="evenodd"></path>
        <path id="path2" d="M185.614 0.247 C 133.825 5.278,93.416 23.739,58.909 58.133 C -31.215 147.961,-15.832 297.532,90.709 367.329 C 134.946 396.309,189.954 406.486,242.158 395.347 C 324.712 377.732,388.021 308.847,398.371 225.375 C 412.223 113.656,334.379 14.505,222.178 0.956 C 217.077 0.340,190.051 -0.184,185.614 0.247 M221.207 81.068 C 291.767 90.765,340.203 142.448,332.660 199.990 C 329.149 226.772,313.067 250.868,280.320 278.411 C 251.957 302.266,206.202 331.963,194.557 334.075 C 187.763 335.307,186.758 332.632,189.051 319.424 C 192.413 300.065,190.571 297.281,172.428 294.291 C 96.944 281.853,50.409 219.511,71.276 158.780 C 85.442 117.551,130.179 85.918,181.618 80.756 C 184.036 80.514,186.553 80.243,187.213 80.155 C 191.141 79.630,215.504 80.284,221.207 81.068 M111.089 160.240 C 110.304 161.025,110.290 161.572,110.290 190.939 L 110.290 220.840 111.215 221.709 C 112.138 222.576,112.169 222.577,131.594 222.577 C 155.153 222.577,152.647 223.454,152.647 215.207 C 152.647 207.484,154.148 208.192,137.773 208.192 L 124.675 208.192 124.675 184.615 C 124.675 156.303,125.572 159.441,117.483 159.441 C 112.421 159.441,111.812 159.517,111.089 160.240 M161.700 160.171 C 161.097 160.838,161.039 163.563,161.039 191.118 L 161.039 221.333 161.927 221.955 C 163.584 223.116,173.200 222.840,174.444 221.597 L 175.425 220.616 175.425 191.081 C 175.425 155.424,176.359 159.441,168.065 159.441 C 163.047 159.441,162.282 159.528,161.700 160.171 M185.415 160.240 C 184.630 161.025,184.615 161.572,184.615 191.009 C 184.615 226.735,183.672 222.577,191.779 222.577 C 199.754 222.577,199.001 224.614,199.001 203.054 C 199.001 185.984,199.016 185.652,199.754 186.425 C 200.167 186.858,206.210 194.945,213.181 204.396 C 220.153 213.846,226.142 221.803,226.491 222.078 C 226.929 222.422,228.828 222.577,232.615 222.577 C 240.658 222.577,239.760 226.574,239.760 190.755 C 239.760 155.318,240.707 159.441,232.567 159.441 C 224.558 159.441,225.375 157.264,225.375 178.621 C 225.375 188.292,225.240 196.197,225.075 196.189 C 224.910 196.181,218.931 188.256,211.788 178.579 C 204.645 168.901,198.480 160.636,198.086 160.212 C 196.985 159.024,186.608 159.047,185.415 160.240 M249.750 160.240 C 248.965 161.025,248.951 161.572,248.951 191.009 C 248.951 220.446,248.965 220.993,249.750 221.778 C 250.528 222.556,251.082 222.577,270.130 222.577 C 293.805 222.577,291.309 223.425,291.309 215.385 C 291.309 207.474,292.784 208.192,276.523 208.192 L 263.337 208.192 263.337 203.197 L 263.337 198.202 276.523 198.202 C 292.784 198.202,291.309 198.920,291.309 191.009 C 291.309 183.098,292.784 183.816,276.523 183.816 L 263.337 183.816 263.337 178.821 L 263.337 173.826 276.523 173.826 C 292.784 173.826,291.309 174.544,291.309 166.633 C 291.309 158.593,293.805 159.441,270.130 159.441 C 251.082 159.441,250.528 159.462,249.750 160.240 " stroke="none" fill="#FFFFFF" fill-rule="evenodd"></path>
        <path id="path3" d="M96.089 119.980 L 94.106 122.078 96.204 120.095 C 98.153 118.252,98.485 117.882,98.187 117.882 C 98.124 117.882,97.180 118.826,96.089 119.980 " stroke="none" fill="#85d995" fill-rule="evenodd"></path>
        <path id="path4" d="M95.904 256.743 C 96.650 257.512,97.350 258.142,97.459 258.142 C 97.569 258.142,97.049 257.512,96.304 256.743 C 95.558 255.974,94.858 255.345,94.748 255.345 C 94.638 255.345,95.159 255.974,95.904 256.743 M299.082 261.039 L 297.502 262.737 299.201 261.158 C 300.780 259.689,301.083 259.341,300.780 259.341 C 300.715 259.341,299.951 260.105,299.082 261.039 M294.905 265.135 C 293.934 266.124,293.230 266.933,293.340 266.933 C 293.450 266.933,294.334 266.124,295.305 265.135 C 296.275 264.146,296.980 263.337,296.870 263.337 C 296.760 263.337,295.876 264.146,294.905 265.135 " stroke="none" fill="#50cc67" fill-rule="evenodd"></path>
        <path id="path5" d="M191.908 80.196 C 192.293 80.296,192.922 80.296,193.307 80.196 C 193.691 80.095,193.377 80.013,192.607 80.013 C 191.838 80.013,191.523 80.095,191.908 80.196 M206.294 80.196 C 206.678 80.296,207.308 80.296,207.692 80.196 C 208.077 80.095,207.762 80.013,206.993 80.013 C 206.224 80.013,205.909 80.095,206.294 80.196 M301.698 118.482 C 302.444 119.251,303.144 119.880,303.254 119.880 C 303.364 119.880,302.843 119.251,302.098 118.482 C 301.352 117.712,300.652 117.083,300.543 117.083 C 300.433 117.083,300.953 117.712,301.698 118.482 M304.895 121.678 C 305.641 122.448,306.341 123.077,306.450 123.077 C 306.560 123.077,306.040 122.448,305.295 121.678 C 304.549 120.909,303.849 120.280,303.739 120.280 C 303.629 120.280,304.150 120.909,304.895 121.678 M110.080 191.009 C 110.080 207.383,110.129 214.081,110.190 205.894 C 110.250 197.707,110.250 184.311,110.190 176.124 C 110.129 167.937,110.080 174.635,110.080 191.009 M248.741 191.009 C 248.741 207.383,248.791 214.081,248.851 205.894 C 248.911 197.707,248.911 184.311,248.851 176.124 C 248.791 167.937,248.741 174.635,248.741 191.009 M239.950 191.009 C 239.950 207.163,239.999 213.771,240.060 205.694 C 240.120 197.617,240.120 184.401,240.060 176.324 C 239.999 168.247,239.950 174.855,239.950 191.009 M263.423 178.721 L 263.509 183.616 263.635 178.927 L 263.762 174.237 276.636 174.126 L 289.510 174.015 276.424 173.920 L 263.337 173.826 263.423 178.721 M66.468 188.212 C 66.468 189.860,66.539 190.534,66.625 189.710 C 66.711 188.886,66.711 187.537,66.625 186.713 C 66.539 185.889,66.468 186.563,66.468 188.212 M199.184 203.197 C 199.184 212.647,199.237 216.456,199.300 211.661 C 199.364 206.866,199.364 199.134,199.300 194.478 C 199.236 189.823,199.184 193.746,199.184 203.197 M263.423 203.097 L 263.509 207.992 263.635 203.302 L 263.762 198.612 276.636 198.501 L 289.510 198.390 276.424 198.296 L 263.337 198.202 263.423 203.097 M121.778 222.877 C 127.108 222.940,135.829 222.940,141.159 222.877 C 146.489 222.814,142.128 222.762,131.469 222.762 C 120.809 222.762,116.449 222.814,121.778 222.877 M165.534 222.874 C 167.018 222.951,169.446 222.951,170.929 222.874 C 172.413 222.797,171.199 222.734,168.232 222.734 C 165.265 222.734,164.051 222.797,165.534 222.874 M189.111 222.874 C 190.594 222.951,193.022 222.951,194.505 222.874 C 195.989 222.797,194.775 222.734,191.808 222.734 C 188.841 222.734,187.627 222.797,189.111 222.874 M229.870 222.874 C 231.354 222.951,233.781 222.951,235.265 222.874 C 236.748 222.797,235.534 222.734,232.567 222.734 C 229.600 222.734,228.387 222.797,229.870 222.874 M260.440 222.877 C 265.769 222.940,274.491 222.940,279.820 222.877 C 285.150 222.814,280.789 222.762,270.130 222.762 C 259.471 222.762,255.110 222.814,260.440 222.877 " stroke="none" fill="#b4e4bc" fill-rule="evenodd"></path>
        <path id="path6" d="M160.829 191.009 C 160.829 207.163,160.878 213.771,160.939 205.694 C 160.999 197.617,160.999 184.401,160.939 176.324 C 160.878 168.247,160.829 174.855,160.829 191.009 " stroke="none" fill="#6cd484" fill-rule="evenodd"></path>
    </g>
</svg>